HIERARCHY
ROOT mixamorig:Hips
{
	OFFSET 0.000000 35.069874 -0.029489
	CHANNELS 6 Xposition Yposition Zposition Xrotation Yrotation Zrotation
	JOINT mixamorig:Spine
	{
		OFFSET 0.000000 6.876060 0.125662
		CHANNELS 3 Xrotation Yrotation Zrotation
		JOINT mixamorig:Spine1
		{
			OFFSET 0.000000 8.022060 0.146603
			CHANNELS 3 Xrotation Yrotation Zrotation
			JOINT mixamorig:Spine2
			{
				OFFSET 0.000000 9.168079 0.167547
				CHANNELS 3 Xrotation Yrotation Zrotation
				JOINT mixamorig:Neck
				{
					OFFSET 0.000000 10.314075 0.188489
					CHANNELS 3 Xrotation Yrotation Zrotation
					JOINT mixamorig:Head
					{
						OFFSET 0.000000 7.643753 -2.377445
						CHANNELS 3 Xrotation Yrotation Zrotation
						JOINT mixamorig:HeadTop_End
						{
							OFFSET 0.000000 43.788605 -13.619637
							CHANNELS 3 Xrotation Yrotation Zrotation
							End Site
							{
								OFFSET 0.000000 45.857788 0.000000
							}
						}
					}
				}
				JOINT mixamorig:LeftShoulder
				{
					OFFSET 4.392187 8.825001 0.174995
					CHANNELS 3 Xrotation Yrotation Zrotation
					JOINT mixamorig:LeftArm
					{
						OFFSET 8.774866 -2.970879 -0.026997
						CHANNELS 3 Xrotation Yrotation Zrotation
						JOINT mixamorig:LeftForeArm
						{
							OFFSET 8.450586 -0.797432 -0.648343
							CHANNELS 3 Xrotation Yrotation Zrotation
							JOINT mixamorig:LeftHand
							{
								OFFSET 18.458662 0.962311 0.193148
								CHANNELS 3 Xrotation Yrotation Zrotation
								JOINT mixamorig:LeftHandThumb1
								{
									OFFSET 2.379990 -1.333382 2.680594
									CHANNELS 3 Xrotation Yrotation Zrotation
									JOINT mixamorig:LeftHandThumb2
									{
										OFFSET 1.903984 -1.066746 2.144473
										CHANNELS 3 Xrotation Yrotation Zrotation
										JOINT mixamorig:LeftHandThumb3
										{
											OFFSET 0.966393 -1.489639 2.964555
											CHANNELS 3 Xrotation Yrotation Zrotation
											JOINT mixamorig:LeftHandThumb4
											{
												OFFSET 1.205181 -0.823021 1.625701
												CHANNELS 3 Xrotation Yrotation Zrotation
												End Site
												{
													OFFSET 1.050617 -0.818157 1.731923
												}
											}
										}
									}
								}
								JOINT mixamorig:LeftHandIndex1
								{
									OFFSET 7.830624 -0.787468 2.563931
									CHANNELS 3 Xrotation Yrotation Zrotation
									JOINT mixamorig:LeftHandIndex2
									{
										OFFSET 3.312897 -0.052605 1.515312
										CHANNELS 3 Xrotation Yrotation Zrotation
										JOINT mixamorig:LeftHandIndex3
										{
											OFFSET 3.460667 -0.207008 1.581951
											CHANNELS 3 Xrotation Yrotation Zrotation
											JOINT mixamorig:LeftHandIndex4
											{
												OFFSET 2.183182 0.110458 0.999585
												CHANNELS 3 Xrotation Yrotation Zrotation
												End Site
												{
													OFFSET 2.183868 0.110451 0.998074
												}
											}
										}
									}
								}
								JOINT mixamorig:LeftHandMiddle1
								{
									OFFSET 8.556145 -0.261200 0.258753
									CHANNELS 3 Xrotation Yrotation Zrotation
									JOINT mixamorig:LeftHandMiddle2
									{
										OFFSET 3.828903 -0.489014 -0.111505
										CHANNELS 3 Xrotation Yrotation Zrotation
										JOINT mixamorig:LeftHandMiddle3
										{
											OFFSET 3.696209 -0.166595 -0.107596
											CHANNELS 3 Xrotation Yrotation Zrotation
											JOINT mixamorig:LeftHandMiddle4
											{
												OFFSET 2.259281 0.534500 -0.065675
												CHANNELS 3 Xrotation Yrotation Zrotation
												End Site
												{
													OFFSET 2.259735 0.534134 -0.051267
												}
											}
										}
									}
								}
								JOINT mixamorig:LeftHandRing1
								{
									OFFSET 8.509293 -0.556679 -3.044941
									CHANNELS 3 Xrotation Yrotation Zrotation
									JOINT mixamorig:LeftHandRing2
									{
										OFFSET 2.995171 -0.303261 -0.843591
										CHANNELS 3 Xrotation Yrotation Zrotation
										JOINT mixamorig:LeftHandRing3
										{
											OFFSET 2.968273 -0.101997 -0.834287
											CHANNELS 3 Xrotation Yrotation Zrotation
											JOINT mixamorig:LeftHandRing4
											{
												OFFSET 1.521358 -0.461468 -0.418735
												CHANNELS 3 Xrotation Yrotation Zrotation
												End Site
												{
													OFFSET 1.516514 -0.460747 -0.436712
												}
											}
										}
									}
								}
							}
						}
					}
				}
				JOINT mixamorig:RightShoulder
				{
					OFFSET -4.392150 8.825024 0.141388
					CHANNELS 3 Xrotation Yrotation Zrotation
					JOINT mixamorig:RightArm
					{
						OFFSET -8.774886 -2.970947 -0.094209
						CHANNELS 3 Xrotation Yrotation Zrotation
						JOINT mixamorig:RightForeArm
						{
							OFFSET -8.450586 -0.797386 -0.330665
							CHANNELS 3 Xrotation Yrotation Zrotation
							JOINT mixamorig:RightHand
							{
								OFFSET -18.458664 0.962341 0.025780
								CHANNELS 3 Xrotation Yrotation Zrotation
								JOINT mixamorig:RightHandThumb1
								{
									OFFSET -2.390282 -1.240040 2.604684
									CHANNELS 3 Xrotation Yrotation Zrotation
									JOINT mixamorig:RightHandThumb2
									{
										OFFSET -1.912228 -0.992111 2.083740
										CHANNELS 3 Xrotation Yrotation Zrotation
										JOINT mixamorig:RightHandThumb3
										{
											OFFSET -0.876358 -1.555370 2.930126
											CHANNELS 3 Xrotation Yrotation Zrotation
											JOINT mixamorig:RightHandThumb4
											{
												OFFSET -1.227077 -0.755932 1.835223
												CHANNELS 3 Xrotation Yrotation Zrotation
												End Site
												{
													OFFSET -1.124962 -0.750702 1.901603
												}
											}
										}
									}
								}
								JOINT mixamorig:RightHandIndex1
								{
									OFFSET -8.716801 -0.633743 3.098187
									CHANNELS 3 Xrotation Yrotation Zrotation
									JOINT mixamorig:RightHandIndex2
									{
										OFFSET -3.319706 -0.240585 1.198087
										CHANNELS 3 Xrotation Yrotation Zrotation
										JOINT mixamorig:RightHandIndex3
										{
											OFFSET -3.153255 -0.154724 1.138827
											CHANNELS 3 Xrotation Yrotation Zrotation
											JOINT mixamorig:RightHandIndex4
											{
												OFFSET -1.818684 -0.003197 0.655154
												CHANNELS 3 Xrotation Yrotation Zrotation
												End Site
												{
													OFFSET -1.818668 -0.003197 0.655188
												}
											}
										}
									}
								}
								JOINT mixamorig:RightHandMiddle1
								{
									OFFSET -8.158691 -0.528496 0.196552
									CHANNELS 3 Xrotation Yrotation Zrotation
									JOINT mixamorig:RightHandMiddle2
									{
										OFFSET -3.890194 -0.261169 -0.136423
										CHANNELS 3 Xrotation Yrotation Zrotation
										JOINT mixamorig:RightHandMiddle3
										{
											OFFSET -3.903057 -0.179909 -0.137173
											CHANNELS 3 Xrotation Yrotation Zrotation
											JOINT mixamorig:RightHandMiddle4
											{
												OFFSET -2.366261 0.198380 -0.083987
												CHANNELS 3 Xrotation Yrotation Zrotation
												End Site
												{
													OFFSET -2.366409 0.198326 -0.079799
												}
											}
										}
									}
								}
								JOINT mixamorig:RightHandRing1
								{
									OFFSET -7.616104 -0.395126 -2.681268
									CHANNELS 3 Xrotation Yrotation Zrotation
									JOINT mixamorig:RightHandRing2
									{
										OFFSET -3.235790 -0.462120 -1.101476
										CHANNELS 3 Xrotation Yrotation Zrotation
										JOINT mixamorig:RightHandRing3
										{
											OFFSET -3.179264 -0.138618 -1.084847
											CHANNELS 3 Xrotation Yrotation Zrotation
											JOINT mixamorig:RightHandRing4
											{
												OFFSET -1.963291 -0.101624 -0.668250
												CHANNELS 3 Xrotation Yrotation Zrotation
												End Site
												{
													OFFSET -1.963745 -0.101669 -0.666919
												}
											}
										}
									}
								}
							}
						}
					}
				}
			}
		}
	}
	JOINT mixamorig:LeftUpLeg
	{
		OFFSET 10.205382 -3.823519 0.155145
		CHANNELS 3 Xrotation Yrotation Zrotation
		JOINT mixamorig:LeftLeg
		{
			OFFSET 0.283732 -12.998343 0.567794
			CHANNELS 3 Xrotation Yrotation Zrotation
			JOINT mixamorig:LeftFoot
			{
				OFFSET -1.058953 -10.688869 -2.184322
				CHANNELS 3 Xrotation Yrotation Zrotation
				JOINT mixamorig:LeftToeBase
				{
					OFFSET 0.108145 -7.191069 7.560211
					CHANNELS 3 Xrotation Yrotation Zrotation
					JOINT mixamorig:LeftToe_End
					{
						OFFSET 0.070226 0.081726 4.490266
						CHANNELS 3 Xrotation Yrotation Zrotation
						End Site
						{
							OFFSET 0.070226 0.081726 4.490267
						}
					}
				}
			}
		}
	}
	JOINT mixamorig:RightUpLeg
	{
		OFFSET -10.205383 -3.823513 0.005508
		CHANNELS 3 Xrotation Yrotation Zrotation
		JOINT mixamorig:RightLeg
		{
			OFFSET -0.283728 -12.998341 0.610627
			CHANNELS 3 Xrotation Yrotation Zrotation
			JOINT mixamorig:RightFoot
			{
				OFFSET 1.058956 -10.688892 -1.945833
				CHANNELS 3 Xrotation Yrotation Zrotation
				JOINT mixamorig:RightToeBase
				{
					OFFSET -0.108150 -7.191040 7.372945
					CHANNELS 3 Xrotation Yrotation Zrotation
					JOINT mixamorig:RightToe_End
					{
						OFFSET -0.070229 0.081738 4.479398
						CHANNELS 3 Xrotation Yrotation Zrotation
						End Site
						{
							OFFSET -0.070229 0.081738 4.479399
						}
					}
				}
			}
		}
	}
}
MOTION
Frames: 4
Frame Time: 0.016667
0.679413 33.581539 4.396822 0.236057 -3.064794 -7.694278 3.543300 -4.977888 1.460084 2.543573 -0.748496 0.564623 2.532546 -0.736121 0.539145 1.281427 -4.702080 9.075184 -6.383949 -12.901324 2.070124 -0.000000 -0.000000 0.000000 3.496961 -24.194612 2.554277 -0.871380 -60.502198 -0.668852 -119.457987 -83.781928 -122.082651 10.770016 -14.829649 -5.835269 8.194810 6.535175 5.783035 51.981418 48.706827 -44.599431 -6.853564 37.715768 3.965073 0.000002 -0.000004 0.000002 35.156558 6.995084 -81.960446 31.273664 -10.415047 -71.598599 34.893633 -19.053800 -89.961678 -0.000002 0.000002 -0.000000 3.547831 7.556185 -68.243828 10.188089 8.754031 -112.410072 4.437407 9.226951 -87.881237 -0.000000 -0.000001 -0.000002 -12.178676 4.722097 -73.887661 -5.623417 25.609902 -93.815353 -6.194743 12.402683 -43.110696 -0.000001 0.000003 -0.000004 -22.774221 7.440356 -9.995523 -21.172948 18.457466 -8.946875 -2.971359 27.451085 9.080139 -39.108809 19.087336 -33.411861 8.776518 -3.427551 -3.398964 11.464356 -57.640827 -0.806224 -6.410241 -24.387539 -5.827078 0.000000 -0.000000 -0.000002 22.944482 -12.105179 52.606120 24.953872 11.615358 77.602629 26.495378 16.386172 91.055779 0.000000 0.000002 0.000002 2.040962 -5.985324 73.030684 6.926627 -8.230991 108.839249 0.415165 -5.122456 51.008020 0.000001 0.000000 0.000001 -15.525732 -7.938024 85.088106 -11.280767 -25.741234 85.498027 -10.028347 -9.678000 37.844743 -0.000002 -0.000001 0.000004 -19.269707 6.229592 35.636280 42.834855 1.183143 -1.189337 -14.591796 4.954012 -12.349133 -3.877308 0.044577 -1.738508 0.000000 0.000000 0.000000 -33.362687 -5.948315 -30.827547 67.719201 2.112501 -1.307750 13.483851 -17.249069 28.323328 3.854864 0.000003 -0.000002 0.000000 -0.000001 -0.000000 
-0.478408 33.483067 4.483588 0.807057 -2.064661 -6.521005 2.573573 -5.130685 -0.433220 1.954506 -0.782986 0.382568 1.941922 -0.775415 0.364030 1.662102 -5.002479 10.592758 -4.294814 -12.579153 1.555275 -0.000000 -0.000001 -0.000000 3.201251 -24.692850 1.343583 5.284224 -59.400475 4.892957 -119.877825 -83.756363 -122.500030 7.231786 -14.179135 -6.860772 8.194789 6.535178 5.783041 51.981435 48.706823 -44.599431 -6.853585 37.715745 3.965094 0.000001 -0.000001 -0.000001 35.156572 6.995065 -81.960487 31.273657 -10.415061 -71.598619 34.893630 -19.053771 -89.961658 0.000001 -0.000000 -0.000001 3.547832 7.556189 -68.243828 10.188093 8.754027 -112.410058 4.437401 9.226954 -87.881244 0.000003 -0.000000 0.000001 -12.178679 4.722071 -73.887661 -5.623436 25.609907 -93.815319 -6.194743 12.402683 -43.110692 0.000001 -0.000000 -0.000002 -22.941977 4.418950 -10.713214 -4.616296 27.503712 -13.114852 -0.944692 8.279190 8.434080 -41.854392 20.754115 -21.505363 8.776520 -3.427556 -3.398956 11.464323 -57.640813 -0.806257 -6.410261 -24.387546 -5.827088 -0.000000 0.000001 0.000001 22.944484 -12.105188 52.606141 24.953872 11.615357 77.602581 26.495381 16.386167 91.055806 0.000001 0.000001 -0.000000 2.040970 -5.985326 73.030671 6.926612 -8.230974 108.839262 0.415170 -5.122466 51.008020 0.000001 -0.000001 0.000001 -15.525723 -7.938046 85.088120 -11.280740 -25.741228 85.498027 -10.028347 -9.677986 37.844746 -0.000003 -0.000004 -0.000001 -20.676226 7.134148 33.961084 45.314538 -1.472007 -0.901236 -14.484060 4.907532 -15.422024 -4.419835 0.087371 -2.444057 -0.000000 -0.000001 -0.000000 -27.805546 -4.816837 -29.072485 53.789536 1.189087 -0.742120 17.950219 -12.750028 29.936214 2.290644 0.000010 -0.000005 0.000002 -0.000001 -0.000002 
-1.521226 33.359142 4.599308 1.339174 -0.995056 -5.357607 1.703239 -5.254503 -2.160139 1.449338 -0.811713 0.262004 1.435959 -0.807518 0.249379 1.776707 -5.217354 11.661962 -2.422183 -12.236113 1.090500 -0.000000 0.000002 -0.000000 2.861721 -25.028272 0.016327 10.004912 -57.894685 9.019210 -125.106690 -83.388714 -127.696793 3.944303 -13.518571 -7.993988 8.194807 6.535179 5.783034 51.981428 48.706820 -44.599435 -6.853555 37.715762 3.965077 0.000002 0.000001 -0.000002 35.156572 6.995073 -81.960446 31.273647 -10.415032 -71.598564 34.893633 -19.053774 -89.961658 -0.000002 0.000002 0.000001 3.547838 7.556200 -68.243849 10.188096 8.754026 -112.410079 4.437397 9.226961 -87.881223 -0.000000 0.000000 -0.000001 -12.178672 4.722087 -73.887668 -5.623426 25.609912 -93.815339 -6.194741 12.402689 -43.110692 -0.000001 -0.000000 -0.000002 -23.155528 1.487954 -11.771449 11.403066 32.232274 -18.059351 0.060262 -2.315356 8.373060 -36.974116 20.568483 -13.536579 8.776526 -3.427541 -3.398961 11.464327 -57.640841 -0.806233 -6.410277 -24.387534 -5.827117 0.000002 -0.000001 -0.000000 22.944482 -12.105179 52.606131 24.953857 11.615335 77.602594 26.495390 16.386169 91.055799 0.000000 0.000006 -0.000000 2.040963 -5.985315 73.030684 6.926615 -8.230979 108.839262 0.415172 -5.122462 51.008044 -0.000000 0.000001 -0.000000 -15.525730 -7.938039 85.088113 -11.280751 -25.741234 85.498034 -10.028354 -9.677983 37.844750 -0.000000 -0.000004 0.000001 -20.857909 8.474836 31.270778 47.002237 -3.706452 -0.682388 -15.844249 5.672334 -17.916505 -3.989700 0.053157 -1.918838 0.000000 0.000000 0.000000 -22.478883 -3.561788 -27.587284 40.118414 0.704659 -0.187682 20.698291 -9.265940 29.347127 -6.549254 -0.684663 6.958433 -0.000000 0.000004 -0.000001 
-2.391623 33.286102 4.698297 1.747619 0.152366 -4.457033 1.018420 -5.372692 -3.402745 1.095658 -0.835676 0.225551 1.082336 -0.833450 0.216778 1.640963 -5.303266 12.170507 -0.964759 -11.795342 0.707366 0.000000 0.000001 -0.000000 2.531009 -25.100689 -1.278645 12.950083 -56.310651 11.206734 -132.284946 -82.702007 -134.823590 1.496056 -12.951459 -9.087067 8.194810 6.535172 5.783038 51.981414 48.706830 -44.599421 -6.853592 37.715772 3.965104 -0.000002 0.000001 -0.000001 35.156575 6.995060 -81.960446 31.273650 -10.415045 -71.598585 34.893623 -19.053791 -89.961651 0.000004 -0.000000 -0.000000 3.547832 7.556181 -68.243849 10.188095 8.754036 -112.410044 4.437398 9.226957 -87.881223 -0.000000 -0.000000 -0.000000 -12.178671 4.722069 -73.887668 -5.623428 25.609907 -93.815319 -6.194743 12.402684 -43.110679 0.000001 0.000002 -0.000002 -23.440888 -1.151242 -13.082023 24.197989 31.934143 -22.201759 0.060254 -2.315375 8.373065 -25.460343 19.419203 -9.632843 8.776518 -3.427540 -3.398971 11.464377 -57.640827 -0.806202 -6.410282 -24.387537 -5.827103 -0.000002 -0.000001 -0.000001 22.944484 -12.105172 52.606131 24.953866 11.615339 77.602601 26.495385 16.386158 91.055779 -0.000000 0.000001 -0.000001 2.040950 -5.985314 73.030657 6.926620 -8.230982 108.839276 0.415169 -5.122466 51.008037 0.000001 -0.000004 0.000001 -15.525727 -7.938012 85.088113 -11.280769 -25.741234 85.498020 -10.028345 -9.677998 37.844753 0.000000 -0.000001 0.000001 -19.696170 10.054426 27.446504 47.226332 -4.324202 -0.434912 -17.562211 7.107214 -18.729255 -5.939148 -0.041732 0.712983 -0.000000 -0.000001 -0.000000 -17.147615 -2.769832 -26.434878 28.060630 0.357114 0.907216 20.241184 -7.827895 26.681220 -15.528845 -1.385753 7.722468 -0.000000 0.000000 -0.000000 
